<?xml version="1.0" encoding="UTF-8"?>
<svg width="248px" height="53px" viewBox="0 0 248 53" version="1.1" xmlns="http://www.w3.org/2000/svg" xmlns:xlink="http://www.w3.org/1999/xlink">
    <!-- Generator: Sketch 42 (36781) - http://www.bohemiancoding.com/sketch -->
    <title>logo / claro syncmdpi/</title>
    <desc>Created with Sketch.</desc>
    <defs>
        <polygon id="path-1" points="0 52.9222434 203.663919 52.9222434 203.663919 0 0 0"></polygon>
    </defs>
    <g id="Symbols" stroke="none" stroke-width="1" fill="none" fill-rule="evenodd">
        <g id="logo-/-claro-sync">
            <g id="Page-1" transform="translate(22.000000, 0.000000)">
                <path d="M26.5955492,23.7509388 C24.8183288,23.7509388 23.1223627,23.7648862 21.4263966,23.7296691 C21.2576644,23.7258336 21.0464034,23.4528138 20.9378339,23.2575507 C19.6298136,20.9126493 17.7571627,19.2944059 15.1013593,18.765452 C11.4117254,18.0304257 7.72935254,19.9394717 5.98428814,23.4855901 C4.26342712,26.9828928 4.51687119,32.5799717 9.44156949,35.6142217 C13.3701254,38.0347875 18.4113458,36.5713599 20.8143966,32.3076493 C21.1352644,31.738248 21.4720373,31.5855243 22.0688237,31.6005178 C23.5566407,31.6381757 25.046878,31.6130704 26.6733458,31.6130704 C26.3898203,32.412952 26.1944644,33.1396099 25.884661,33.8115243 C23.7921051,38.3468599 20.4326746,41.3057941 15.4187695,41.9975836 C10.7208915,42.6454388 6.7598339,41.1220375 3.59645085,37.5361691 C1.01291186,34.6079191 -0.0596440678,31.1730309 0.00259322034,27.2771822 C0.0800440678,22.3917678 2.18919661,18.6005243 5.9317322,15.6684388 C10.5794746,12.0267809 18.7813119,12.0560704 23.6876847,17.997998 C24.9248237,19.4962941 25.8397119,21.1661428 26.4109119,23.0277678 C26.4759153,23.2401164 26.5219017,23.4580441 26.5955492,23.7509388 Z" id="Fill-1" fill="#E51A1A"></path>
                <path d="M71.9926027,19.0355079 C69.0121281,19.2112447 66.6592129,20.3357513 64.8985892,22.7298171 C64.8183722,21.9832842 64.8062705,21.2845211 64.8232129,20.5864553 C64.8318569,20.2276592 64.7357349,20.0575013 64.3384536,20.0536658 C63.0739993,20.0414618 61.8085078,20.0170539 60.5461281,19.9508039 C59.9832264,19.9215145 59.8055044,20.0836526 59.8068875,20.6760671 C59.8252129,27.6190671 59.8155315,34.5617184 59.8131112,41.5043697 L59.8131112,42.2198697 L64.9736197,42.2198697 C64.9736197,41.8917579 64.9711993,41.6225737 64.9739654,41.3533895 C65.0161485,37.4669553 64.9971315,33.5784289 65.1222976,29.6947842 C65.2187654,26.7320145 67.8942773,24.3902513 70.8384468,24.5091526 C71.2263925,24.5248434 71.6139925,24.5468105 71.9926027,24.5656395 L71.9926027,19.0355079 Z" id="Fill-3" fill="#E51A1A"></path>
                <mask id="mask-2" fill="white">
                    <use xlink:href="#path-1"></use>
                </mask>
                <g id="Clip-6"></g>
                <polygon id="Fill-5" fill="#E51A1A" mask="url(#mask-2)" points="29.5855322 42.2179868 34.674122 42.2179868 34.674122 13.2894013 29.5855322 13.2894013"></polygon>
                <path d="M95.6477858,19.6801204 C99.9214129,15.1747717 104.128308,10.7398572 108.373582,6.26484408 C107.27302,5.10407434 106.217752,3.99072566 105.117189,2.82995592 C100.861542,7.30392303 96.633901,11.7475546 92.3671892,16.2323309 C93.4604908,17.3815941 94.531318,18.506798 95.6477858,19.6801204" id="Fill-7" fill="#E51A1A" mask="url(#mask-2)"></path>
                <path d="M111.973249,30.2744717 C111.985351,30.0342283 112.005751,29.8096757 112.006096,29.585123 C112.009554,28.4553862 111.973249,27.3239059 112.022001,26.1962612 C112.047588,25.5933862 111.832869,25.4689059 111.278957,25.4720441 C107.275025,25.4929651 103.270747,25.483202 99.2664692,25.4828533 C98.0358997,25.4828533 98.0362454,25.4828533 98.0369369,26.7538072 C98.0376285,27.9191099 98.0369369,29.0840638 98.0369369,30.2744717 L111.973249,30.2744717 Z" id="Fill-8" fill="#E51A1A" mask="url(#mask-2)"></path>
                <polygon id="Fill-9" fill="#E51A1A" mask="url(#mask-2)" points="82.0228678 14.3072105 86.5084475 14.3072105 86.5084475 0 82.0228678 0"></polygon>
                <path d="M26.5955492,23.7509388 C24.8183288,23.7509388 23.1223627,23.7648862 21.4263966,23.7296691 C21.2576644,23.7258336 21.0464034,23.4528138 20.9378339,23.2575507 C19.6298136,20.9126493 17.7571627,19.2944059 15.1013593,18.765452 C11.4117254,18.0304257 7.72935254,19.9394717 5.98428814,23.4855901 C4.26342712,26.9828928 4.51687119,32.5799717 9.44156949,35.6142217 C13.3701254,38.0347875 18.4113458,36.5713599 20.8143966,32.3076493 C21.1352644,31.738248 21.4720373,31.5855243 22.0688237,31.6005178 C23.5566407,31.6381757 25.046878,31.6130704 26.6733458,31.6130704 C26.3898203,32.412952 26.1944644,33.1396099 25.884661,33.8115243 C23.7921051,38.3468599 20.4326746,41.3057941 15.4187695,41.9975836 C10.7208915,42.6454388 6.7598339,41.1220375 3.59645085,37.5361691 C1.01291186,34.6079191 -0.0596440678,31.1730309 0.00259322034,27.2771822 C0.0800440678,22.3917678 2.18919661,18.6005243 5.9317322,15.6684388 C10.5794746,12.0267809 18.7813119,12.0560704 23.6876847,17.997998 C24.9248237,19.4962941 25.8397119,21.1661428 26.4109119,23.0277678 C26.4759153,23.2401164 26.5219017,23.4580441 26.5955492,23.7509388" id="Fill-10" fill="#E51A1A" mask="url(#mask-2)"></path>
                <path d="M50.1055464,36.0672322 C49.2629227,37.8259954 46.4311261,38.8957586 44.625899,38.1736336 C43.5191125,37.7308046 43.1425769,36.8155086 43.0865634,35.7426072 C43.0219058,34.492923 43.4250651,33.4133967 44.6034244,32.8188901 C45.1134244,32.5612125 45.6894651,32.4234822 46.2468346,32.2766862 C47.6623871,31.9039428 49.1422515,31.749127 50.4388617,30.980627 C50.4827736,30.954127 50.5560753,30.9774888 50.6822786,30.9774888 C50.7151261,32.7076599 50.8855871,34.4392257 50.1055464,36.0672322 M56.1401431,25.5564954 C56.1072956,22.5128309 54.8915939,20.7456993 52.0795058,19.7024362 C49.2262719,18.6431336 46.3014651,18.7132191 43.4039736,19.5465743 C40.3149295,20.4343243 38.5636414,22.6090678 38.4229159,26.7932783 L43.5156549,26.7932783 C43.5737431,26.4445941 43.6290651,26.2528178 43.6968346,26.0359362 C43.9651464,25.1718967 44.3638108,24.3033243 45.2351329,23.9567322 C46.788299,23.3392125 48.3635939,23.3374691 49.8604007,24.1300283 C50.5954922,24.5191599 50.8990719,25.4560743 50.7210041,26.430298 C50.5916888,27.1405678 49.9793431,27.7151993 49.1802854,27.8696664 C48.7332142,27.9564888 48.278882,28.0032125 47.8335397,28.0984033 C45.8924278,28.5129888 43.9112075,28.7978638 42.0268007,29.3948112 C39.9055464,30.0670743 38.5228414,31.6260414 38.1552956,33.8886533 C37.976882,34.9873572 37.9250176,36.1394099 38.0335871,37.2461336 C38.2738922,39.6890151 39.7938651,41.4272059 42.1744414,41.9875414 C45.0850719,42.6727059 47.7768346,42.1099296 50.2652888,40.4362454 C50.4388617,40.3197849 50.5450108,40.2033243 50.8907736,39.9976007 L50.8907736,42.1353836 L55.7314515,42.1353836 L55.7314515,41.4927586 C55.7314515,38.6066993 55.9396007,35.7206401 55.9396007,32.8345809 C55.9402922,30.4084362 56.1660753,27.9822914 56.1401431,25.5564954" id="Fill-11" fill="#E51A1A" mask="url(#mask-2)"></path>
                <path d="M89.5866346,30.6566645 C89.5302753,30.2016316 89.4991566,29.7413684 89.4137532,29.2919145 C88.9767092,26.9801382 87.0394007,24.9169737 84.9720854,24.5421382 C82.3083295,24.0599079 80.0995973,25.00275 78.7034075,27.2294474 C77.8600922,28.5743224 77.5731092,30.0429803 77.7982007,31.6124079 C78.2238346,34.5859868 80.8633871,37.4472895 84.5471431,36.8942763 C87.3409058,36.4755066 89.5555159,33.7327566 89.5866346,30.6566645 M83.7408244,42.2636645 C78.6290685,42.8790921 73.2735498,37.8336316 72.7161803,32.2829276 C72.3496719,28.6325526 73.2493464,25.4229145 75.6479024,22.6351842 C79.6815702,17.9464276 86.5093464,18.0367368 90.5855431,21.5598421 C96.5568651,26.7207171 96.1343431,37.4333421 88.0759973,41.4292632 C86.6659769,42.128375 85.1785058,42.4254539 83.7408244,42.2636645" id="Fill-12" fill="#E51A1A" mask="url(#mask-2)"></path>
                <path d="M71.9926027,19.0355079 L71.9926027,24.5656395 C71.6139925,24.5468105 71.2263925,24.5248434 70.8384468,24.5091526 C67.8942773,24.3902513 65.2187654,26.7320145 65.1222976,29.6947842 C64.9971315,33.5784289 65.0161485,37.4669553 64.9739654,41.3533895 C64.9711993,41.6225737 64.9736197,41.8917579 64.9736197,42.2198697 L59.8131112,42.2198697 L59.8131112,41.5043697 C59.8155315,34.5617184 59.8252129,27.6190671 59.8068875,20.6760671 C59.8055044,20.0836526 59.9832264,19.9215145 60.5461281,19.9508039 C61.8085078,20.0170539 63.0739993,20.0414618 64.3384536,20.0536658 C64.7357349,20.0575013 64.8318569,20.2276592 64.8232129,20.5864553 C64.8062705,21.2845211 64.8183722,21.9832842 64.8985892,22.7298171 C66.6592129,20.3357513 69.0121281,19.2112447 71.9926027,19.0355079" id="Fill-13" fill="#E51A1A" mask="url(#mask-2)"></path>
                <polygon id="Fill-14" fill="#E51A1A" mask="url(#mask-2)" points="29.5855322 42.2179868 34.674122 42.2179868 34.674122 13.2894013 29.5855322 13.2894013"></polygon>
                <path d="M95.6477858,19.6801204 C94.531318,18.506798 93.4604908,17.3815941 92.3671892,16.2323309 C96.633901,11.7475546 100.861542,7.30392303 105.117189,2.82995592 C106.217752,3.99072566 107.27302,5.10407434 108.373582,6.26484408 C104.128308,10.7398572 99.9214129,15.1747717 95.6477858,19.6801204" id="Fill-15" fill="#E51A1A" mask="url(#mask-2)"></path>
                <path d="M111.973249,30.2744717 L98.0369369,30.2744717 C98.0369369,29.0840638 98.0376285,27.9191099 98.0369369,26.7538072 C98.0362454,25.4828533 98.0358997,25.4828533 99.2664692,25.4828533 C103.270747,25.483202 107.275025,25.4929651 111.278957,25.4720441 C111.832869,25.4689059 112.047588,25.5933862 112.022001,26.1962612 C111.973249,27.3239059 112.009554,28.4553862 112.006096,29.585123 C112.005751,29.8096757 111.985351,30.0342283 111.973249,30.2744717" id="Fill-16" fill="#E51A1A" mask="url(#mask-2)"></path>
                <polygon id="Fill-17" fill="#E51A1A" mask="url(#mask-2)" points="82.0228678 14.3072105 86.5084475 14.3072105 86.5084475 0 82.0228678 0"></polygon>
                <path d="M119.273959,35.9822928 C121.147647,38.0220954 123.567986,39.041648 126.534631,39.041648 C127.862705,39.041648 128.947363,38.7738586 129.788603,38.2372336 C130.629498,37.7009572 131.050292,36.9502401 131.050292,35.9843849 C131.050292,35.126273 130.799614,34.528977 130.298258,34.1917993 C129.781688,33.8389309 129.096386,33.6475033 128.241315,33.6164704 L124.170997,33.2489572 C122.239566,33.064852 120.668766,32.3908454 119.45998,31.2262401 C118.220766,30.0919704 117.586637,28.5061546 117.557593,26.4677467 C117.586637,24.016148 118.418888,22.1771875 120.053654,20.9512138 C121.644508,19.7248914 123.66238,19.1119046 126.107614,19.1119046 C127.168068,19.1119046 128.117878,19.1809441 128.957736,19.3186743 C129.797247,19.4717467 130.585241,19.6861875 131.321715,19.9619967 C132.735539,20.5592928 134.002068,21.3633586 135.121647,22.3738454 L132.268068,25.8425559 C131.382569,25.1772664 130.445898,24.6280888 129.458054,24.1946743 C128.484386,23.8083322 127.363424,23.6148125 126.095166,23.6148125 C124.649532,23.6148125 123.639214,23.8832993 123.06421,24.420273 C122.459471,24.9575954 122.156929,25.6479901 122.156929,26.4914572 C122.126502,27.0287796 122.355051,27.4967138 122.842576,27.8952599 C123.285153,28.3401809 124.066576,28.6240099 125.187539,28.7467467 L128.99162,29.0459178 C131.380841,29.2303717 133.106197,29.9817862 134.168034,31.3012072 C135.156224,32.5902928 135.649973,34.224227 135.649973,36.2030099 C135.620237,38.5200164 134.715031,40.3073717 132.933661,41.5654243 C131.166814,42.8541612 128.906563,43.5138717 126.153946,43.5445559 C122.414176,43.5445559 119.050251,42.1201809 116.061478,39.2717796 L119.273959,35.9822928 Z" id="Fill-18" fill="#FFFFFF" mask="url(#mask-2)"></path>
                <path d="M137.705567,19.4107618 L142.580475,19.4107618 L148.006529,36.1238934 L148.095045,36.1238934 L153.499316,19.4107618 L158.396353,19.4107618 L148.536238,48.2103342 C147.903838,50.0032684 147.028713,51.2442355 145.911207,51.9339329 C144.778835,52.5925974 143.499513,52.9221039 142.072896,52.9221039 L140.550848,52.9221039 L140.550848,48.4195447 L141.896902,48.4195447 C142.499221,48.4195447 143.057974,48.2500842 143.57316,47.9125579 C144.087655,47.5596895 144.44794,47.0377092 144.654014,46.3473145 L145.911207,42.3405842 L137.705567,19.4107618 Z" id="Fill-19" fill="#FFFFFF" mask="url(#mask-2)"></path>
                <path d="M161.72833,19.4107618 L166.328357,19.4107618 L166.328357,21.9390711 L166.416181,21.9390711 C167.930967,20.0544329 169.915991,19.1119395 172.371944,19.1119395 C174.268452,19.1119395 176.003835,19.8093079 177.577401,21.2036961 C179.1361,22.6134263 179.952445,24.6821697 180.025747,27.4092289 L180.025747,43.2687816 L175.426412,43.2687816 L175.426412,29.0459526 C175.426412,27.3736632 174.999395,26.1002684 174.145361,25.2254197 C173.306195,24.3355776 172.223957,23.8906566 170.898995,23.8906566 C169.574032,23.8906566 168.484879,24.3355776 167.631191,25.2254197 C166.762289,26.1002684 166.328012,27.3736632 166.328012,29.0459526 L166.328012,43.2687816 L161.72833,43.2687816 L161.72833,19.4107618 Z" id="Fill-20" fill="#FFFFFF" mask="url(#mask-2)"></path>
                <path d="M203.664022,39.4289316 C202.662694,40.6179447 201.485026,41.5858921 200.130327,42.3327737 C198.775629,43.1103395 197.207595,43.5141158 195.426226,43.5444513 C192.722361,43.5444513 190.349392,42.5869645 188.306626,40.6712934 C186.190558,38.7563197 185.103134,35.6533789 185.044355,31.3628197 C185.103134,27.0265829 186.191595,23.8852868 188.309392,21.9389316 C190.353541,20.0239579 192.728931,19.0814645 195.435216,19.1118 C197.214511,19.1428329 198.780816,19.5249908 200.134131,20.2586224 C201.487446,21.0075961 202.664077,22.0093658 203.664022,23.2628855 L200.263792,26.4045303 C199.100992,24.7901224 197.548517,23.9522342 195.605331,23.8905171 C191.69026,23.8294974 189.702816,26.3201487 189.644036,31.3628197 C189.702816,36.3748066 191.689914,38.8427934 195.604985,38.7660829 C197.547826,38.7353987 199.1003,37.9048329 200.2631,36.2754316 L203.664022,39.4289316 Z" id="Fill-21" fill="#FFFFFF" mask="url(#mask-2)"></path>
            </g>
        </g>
    </g>
</svg>